HIERARCHY
ROOT Hips
{
   OFFSET 0.00000 0.00000 0.00000
   CHANNELS 6 Xposition Yposition Zposition Zrotation Xrotation Yrotation
   JOINT Spine
   {
      OFFSET 0.000000 11.890501 0.000000
      CHANNELS 3 Zrotation Xrotation Yrotation
      JOINT Spine1
      {
         OFFSET -0.000000 25.657401 0.127660
         CHANNELS 3 Zrotation Xrotation Yrotation
         JOINT HEad
         {
            OFFSET 0.000000 8.734161 0.011340
            CHANNELS 3 Zrotation Xrotation Yrotation
            End Site
            {
               OFFSET -0.290000 12.774200 2.513950
            }
         }
         JOINT LeftShoulder1
         {
            OFFSET 8.990000 -0.362250 -0.220000
            CHANNELS 3 Zrotation Xrotation Yrotation
            JOINT LeftArm
            {
               OFFSET 10.282700 -0.003380 0.322120
               CHANNELS 3 Zrotation Xrotation Yrotation
               JOINT LeftForeArm
               {
                  OFFSET 32.766900 0.099140 -1.424340
                  CHANNELS 3 Zrotation Xrotation Yrotation
                  JOINT LeftHand
                  {
                     OFFSET 27.564301 0.085360 1.022160
                     CHANNELS 3 Zrotation Xrotation Yrotation
                     End Site
                     {
                        OFFSET 16.744301 -0.600000 1.502910
                     }
                  }
               }
            }
         }
         JOINT RightShoulder
         {
            OFFSET -8.990000 -0.362250 -0.220000
            CHANNELS 3 Zrotation Xrotation Yrotation
            JOINT RightArm
            {
               OFFSET -10.282700 -0.003380 0.322120
               CHANNELS 3 Zrotation Xrotation Yrotation
               JOINT RightForeArm
               {
                  OFFSET -32.897098 0.099140 -1.424340
                  CHANNELS 3 Zrotation Xrotation Yrotation
                  JOINT RightHand
                  {
                     OFFSET -27.492101 0.085360 1.022160
                     CHANNELS 3 Zrotation Xrotation Yrotation
                     End Site
                     {
                        OFFSET -16.631201 -0.600000 1.502910
                     }
                  }
               }
            }
         }
      }
   }
   JOINT LeftUpLeg
   {
      OFFSET 8.945800 -8.667070 0.101650
      CHANNELS 3 Zrotation Xrotation Yrotation
      JOINT LeftLeg
      {
         OFFSET 0.000000 -44.422697 1.372700
         CHANNELS 3 Zrotation Xrotation Yrotation
         JOINT LeftFoot
         {
            OFFSET -0.253550 -42.092399 -1.460590
            CHANNELS 3 Zrotation Xrotation Yrotation
            JOINT LeftToes
            {
               OFFSET -0.040000 -4.415090 8.499099
               CHANNELS 3 Zrotation Xrotation Yrotation
               End Site
               {
                  OFFSET 0.080000 -0.047450 9.779790
               }
            }
         }
      }
   }
   JOINT RightUpLeg
   {
      OFFSET -8.945800 -8.667070 0.101650
      CHANNELS 3 Zrotation Xrotation Yrotation
      JOINT RightLeg
      {
         OFFSET 0.000000 -44.422697 1.372700
         CHANNELS 3 Zrotation Xrotation Yrotation
         JOINT RightFoot
         {
            OFFSET 0.253550 -42.092399 -1.460590
            CHANNELS 3 Zrotation Xrotation Yrotation
            JOINT RightToes
            {
               OFFSET 0.040000 -4.415090 8.499099
               CHANNELS 3 Zrotation Xrotation Yrotation
               End Site
               {
                  OFFSET -0.080000 -0.137450 9.779790
               }
            }
         }
      }
   }
}
MOTION
Frames: 10
Frame Time: 0.016670
-22.732083 80.704821 -31.670136 38.126966 25.388727 123.976895 -0.380429 40.060139 47.155486 22.767336 19.078634 -64.896346 -22.148104 3.724061 17.181300 44.626837 92.713452 -65.356728 81.465749 -55.908780 47.053313 51.725187 -1.154685 -7.081473 -119.350179 -100.200439 -162.285623 -148.707930 25.802276 119.492233 136.636691 0.759047 225.588212 -30.509010 20.556050 50.104468 -19.832052 9.681760 32.004064 18.138122 10.969263 -54.639143 -24.727431 1.545065 79.691369 -7.193568 19.276752 12.157838 -28.450176 4.835376 -34.547233 -27.282706 43.206762 6.299742 29.575607 5.648513 -2.701838 -4.938097 10.388129 28.360725 39.926759 -36.320900 -40.613770
-22.999279 81.679772 -32.805666 38.750771 24.634013 123.163214 0.865795 41.416498 44.600319 22.850101 21.355416 -61.176345 -22.584154 2.442006 16.031837 47.055806 88.417571 -67.904662 80.725289 -56.278187 46.006173 51.729865 -2.012291 -7.376364 -122.650581 -96.174896 -163.269812 -151.941588 23.477027 122.631511 139.454076 2.819422 228.594793 -33.745441 18.254551 49.291317 -21.829351 8.516891 29.127885 18.866835 11.103098 -61.049597 -26.071612 -2.475757 85.630000 -6.464906 18.583823 12.803114 -29.078817 2.144111 -34.863703 -27.293281 43.172287 6.006042 30.057777 5.534573 -1.022933 -6.943863 9.776786 28.245057 38.764944 -33.785176 -41.428536
-23.458566 82.482470 -33.809270 37.983693 23.064036 122.596650 2.013169 42.782044 42.707421 22.398347 22.656974 -58.006269 -22.808189 0.650343 15.256809 49.325765 84.748318 -69.626805 79.559956 -57.313033 46.185930 51.635779 -2.987476 -7.866462 -124.117487 -96.029222 -164.792001 -155.855040 21.905045 125.059193 141.883656 4.937026 231.731434 -35.998037 17.715013 49.031018 -23.553605 7.303818 27.255913 19.353855 10.147697 -67.232086 -26.240226 -5.875176 90.935349 -5.409672 20.025297 13.372869 -29.655551 0.405211 -33.867548 -26.602152 41.584869 5.103368 31.010234 5.058788 0.034727 -8.715491 9.371725 28.013825 37.852881 -31.326936 -42.606549
-24.103133 83.249778 -34.636321 37.622475 21.817117 122.052161 2.735144 43.444405 40.367897 22.452548 24.215674 -55.729187 -22.963287 -1.736882 14.729872 51.275343 81.126214 -70.910867 77.729745 -58.575545 47.339679 51.567351 -4.439026 -8.569214 -126.207525 -92.732447 -166.929277 -159.450971 20.413562 127.276682 143.679723 6.966502 234.447746 -38.049225 17.811738 49.149345 -24.836712 6.368826 25.792393 19.879901 9.519975 -72.218718 -25.579852 -9.109925 93.838405 -4.616566 20.547664 13.472826 -30.638446 -1.842035 -33.292565 -25.678533 39.953202 4.506659 31.482449 5.332290 0.823897 -10.184986 8.949763 27.832340 36.996785 -29.269601 -43.910149
-24.919374 83.866318 -35.339059 37.482579 20.881900 122.205950 3.560807 43.119800 38.364845 22.856316 25.912457 -53.608758 -22.904221 -3.544623 14.375380 52.832558 77.605757 -71.317427 76.427706 -60.067272 48.295236 51.315525 -5.794561 -9.258224 -127.141171 -91.756611 -169.171724 -162.323954 19.041603 129.704527 145.438537 9.254837 236.728947 -39.970062 18.119355 49.743602 -26.047628 5.403223 24.813046 20.738469 9.357617 -76.311368 -24.553640 -11.479478 94.751321 -3.856041 22.630700 13.091492 -31.574322 -3.371716 -32.073496 -24.596203 38.077663 4.092864 31.892520 5.952803 1.573880 -11.189541 8.699659 27.977389 36.247449 -27.457562 -45.284147
-25.866408 84.353188 -35.962946 37.372913 19.845649 122.154040 3.680655 43.404179 37.274132 22.945472 27.153190 -51.547042 -22.724169 -4.943212 14.204693 54.150587 74.706301 -71.733017 75.755445 -61.237871 49.229893 51.072613 -6.740429 -10.046064 -129.161527 -88.591809 -171.005233 -164.937908 17.437133 131.616748 146.840693 11.973703 239.098285 -41.777617 18.798345 50.137769 -27.081871 4.596928 23.830931 21.369415 9.225090 -78.933710 -23.016470 -13.099424 94.257355 -2.636345 24.615034 12.936482 -32.647157 -4.814376 -30.927506 -22.927430 36.442860 3.095962 32.158747 6.453786 1.533950 -12.222064 8.829488 27.644127 35.645972 -25.764933 -47.007489
-26.902871 84.790724 -36.444129 37.417993 19.231019 122.364792 4.233830 43.563124 36.353634 23.288160 28.010201 -49.890751 -22.474295 -5.880257 14.204096 55.645049 72.239810 -71.790684 75.631388 -62.291175 50.005027 50.844232 -7.240015 -10.781021 -131.018574 -86.516394 -172.195503 -167.115400 15.607672 133.258548 147.947170 15.082425 241.496474 -43.527897 19.712872 49.839549 -27.983732 3.914420 22.539932 21.965101 9.262959 -81.269655 -21.647007 -14.795030 93.520207 -1.436312 25.557858 13.055582 -34.047591 -6.865182 -30.483172 -21.823305 35.012745 2.381225 31.749284 7.037231 1.640546 -12.798955 8.599170 27.465587 35.090288 -24.094507 -48.395326
-27.953617 85.174054 -36.783747 37.400234 18.797910 122.824450 4.596875 44.424295 35.592160 23.352203 28.508361 -48.745045 -22.128640 -6.788749 14.362409 57.276098 70.625727 -71.471571 75.574206 -63.378678 50.799412 50.630953 -6.886804 -11.612948 -134.155584 -83.029111 -172.380082 -169.221871 13.865606 134.392742 149.185005 18.364224 243.510014 -45.016120 20.594402 49.863048 -29.088502 3.063329 21.606677 22.245334 9.006205 -83.230622 -20.628843 -16.287001 92.680975 -0.196426 26.666988 13.352881 -35.520897 -8.518035 -29.663095 -20.401039 33.792719 2.275274 31.621740 9.459599 2.520485 -16.326056 7.076662 27.250624 37.002936 -24.887722 -50.748162
-28.999106 85.477437 -36.999642 38.133209 19.552919 124.327898 4.850406 44.544793 34.661902 24.321899 29.151124 -47.967333 -21.487700 -7.357144 14.608892 58.758287 68.580037 -71.353408 76.055058 -63.890204 51.109059 50.389949 -7.140383 -12.670881 -135.521308 -80.716163 -173.863422 -170.689651 11.539786 135.928933 149.696068 21.564676 244.924600 -46.533515 21.255231 49.517635 -30.153127 2.196605 20.699331 22.047282 9.487366 -85.104499 -20.021091 -17.034871 91.752076 0.983092 28.178639 13.783008 -36.940528 -9.637093 -28.476908 -18.651467 32.458087 3.203433 29.944635 14.591292 3.119459 -14.133814 6.271408 27.586280 33.167020 -25.847198 -53.609724
-30.008802 85.708865 -37.174148 38.448842 19.754779 124.583497 5.157074 44.638326 34.069107 25.158399 29.925091 -47.476590 -20.958509 -7.858666 15.006877 59.662099 66.766021 -70.637536 75.767787 -64.603153 51.783776 49.890997 -6.928426 -13.070716 -137.557114 -78.202900 -174.523860 -171.675808 9.336086 136.984334 149.958401 24.688272 246.563272 -47.968907 21.124238 50.065826 -31.435956 1.159466 20.009340 21.971607 9.622805 -86.776556 -19.497467 -17.842708 90.681976 1.938250 29.256692 14.276944 -38.414463 -11.049730 -27.649753 -17.579742 31.168527 3.349464 28.912799 18.722037 4.154130 -14.210736 5.141197 28.003578 31.868126 -27.223797 -56.637694
